#define bullet_width 8
#define bullet_height 8
static unsigned char bullet_bits[] = {
   0x08, 0x10, 0x20, 0xc6, 0x49, 0x25, 0x11, 0x0e};
