#define agnula-close_width 8
#define agnula-close_height 8
static unsigned char agnula-close_bits[] = {
   0x18, 0x3c, 0x5a, 0xff, 0xff, 0x5a, 0x3c, 0x18};
