#define iconify_hover_width 8
#define iconify_hover_height 8
static unsigned char iconify_hover_bits[] = {
   0x00, 0x00, 0x00, 0x04, 0x1c, 0x14, 0x0c, 0x00};
