#define agnula-icon_width 8
#define agnula-icon_height 8
static unsigned char agnula-icon_bits[] = {
   0x04, 0x04, 0x04, 0x1c, 0x24, 0x14, 0x0c, 0x04};
