#define max_hover_width 8
#define max_hover_height 8
static unsigned char max_hover_bits[] = {
   0x42, 0xff, 0x42, 0x42, 0x42, 0x42, 0xff, 0x42};
