#define shade_width 8
#define shade_height 8
static unsigned char shade_bits[] = {
   0x00, 0x00, 0x00, 0x8e, 0x71, 0x00, 0x00, 0x00};
